# xmcd CD database file
#
# Track frame offsets:
#	150
#	17185
#	31835
#	45925
#	66175
#	83890
#	104195
#	127732
#	140860
#	151305
#	168060
#
# Disc length: 2523 seconds
#
# Revision: 0
# Processed by: cddbd v1.4PL0 Copyright (c) Steve Scherf et al.
# Submitted via: CDex 1.51
#
DISCID=8909d90b
DTITLE=Memphis Sheiks - Diamond In The Bluff
DYEAR=1995
DGENRE=Blues
TTITLE0=Send Me An Angel Down
TTITLE1=I Watch My Stuff
TTITLE2=Memories
TTITLE3=Head To My Shoes
TTITLE4=Mr. Crump Don't Like It
TTITLE5=Don't Feel Like Talkin' Today
TTITLE6=Cheese 'N Eggs
TTITLE7=21st Century Blues Man
TTITLE8=Tons Of Love
TTITLE9=Land Of Make Believe
TTITLE10=Diamond In The Bluff
EXTD=YEAR: 1995
EXTT0=
EXTT1=
EXTT2=
EXTT3=
EXTT4=
EXTT5=
EXTT6=
EXTT7=
EXTT8=
EXTT9=
EXTT10=
PLAYORDER=
